<svg xmlns="http://www.w3.org/2000/svg" version="1.1" xmlns:xlink="http://www.w3.org/1999/xlink" xmlns:svgjs="http://svgjs.dev/svgjs" width="1000" height="1000" viewBox="0 0 1000 1000"><rect width="1000" height="1000" fill="#ffffff"></rect><g transform="matrix(0.7,0,0,0.7,149.57575788177377,392.29218252850364)"><svg viewBox="0 0 396 122" data-background-color="#ffffff" preserveAspectRatio="xMidYMid meet" height="308" width="1000" xmlns="http://www.w3.org/2000/svg" xmlns:xlink="http://www.w3.org/1999/xlink"><g id="tight-bounds" transform="matrix(1,0,0,1,0.24000017311772126,-0.052162606552371926)"><svg viewBox="0 0 395.52 122.1043252618281" height="122.1043252618281" width="395.52"><g><svg viewBox="0 0 596.8194782719853 184.24919017373847" height="122.1043252618281" width="395.52"><g transform="matrix(1,0,0,1,199.32187827198538,32.43897398760797)"><svg viewBox="0 0 397.4975999999999 119.37124219852252" height="119.37124219852252" width="397.4975999999999"><g id="textblocktransform"><svg viewBox="0 0 397.4975999999999 119.37124219852252" height="119.37124219852252" width="397.4975999999999" id="textblock"><g><rect width="397.4975999999999" height="5.76122493669843" x="0" y="70.67189094563298" fill="#000000" opacity="1" stroke-width="0" stroke="transparent" fill-opacity="1" class="rect-o-0" data-fill-palette-color="primary" rx="1%" id="o-0" data-palette-color="#4a596d"></rect></g><g transform="matrix(1,0,0,1,0.9887999999999693,0)"><svg viewBox="0 0 395.52 63.88510764323954" height="63.88510764323954" width="395.52"><g transform="matrix(1,0,0,1,0,0)"><svg width="395.52" viewBox="3.6600000858306885 -31.25 214.3199920654297 34.619998931884766" height="63.88510764323954" data-palette-color="#4a596d"><path d="M3.66 0L3.66-3.91 10.25-3.91 10.25-26.49 3.66-26.49 3.66-30.4 39.97-30.4 39.97-20.87 34.47-20.87 34.47-26.49 15.99-26.49 15.99-16.87 28.25-16.87 28.25-13.82 15.99-13.82 15.99-3.91 34.47-3.91 34.47-9.52 39.97-9.52 39.97 0 3.66 0ZM35.94-18.24L35.94-19.17 41.72-19.17 41.72-29.17 42.7-29.17 42.7-18.24 35.94-18.24ZM17.75-18.33L17.75-24.78 33.45-24.78 33.45-23.85 18.73-23.85 18.73-18.33 17.75-18.33ZM5.13-23.85L5.13-24.78 9.23-24.78 9.23-23.85 5.13-23.85ZM17.75-5.37L17.75-12.11 29.98-12.11 29.98-15.65 30.96-15.65 30.96-11.18 18.73-11.18 18.73-5.37 17.75-5.37ZM5.13 1.71L41.72 1.71 41.72-8.15 42.7-8.15 42.7 2.64 5.13 2.64 5.13 1.71ZM51.17 0L51.17-3.91 57.54-3.91 57.54-26.49 50.8-26.49 50.8-30.4 70.8-30.4Q73.61-30.4 75.86-30.3 78.12-30.2 79.95-29.86L79.95-29.86Q82.1-29.44 83.6-28.71 85.1-27.98 86.06-26.94 87.01-25.9 87.44-24.6 87.86-23.29 87.86-21.75L87.86-21.75Q87.86-18.95 86.11-16.87 84.35-14.79 80.81-13.7L80.81-13.7Q80.37-13.55 79.89-13.44 79.42-13.33 78.93-13.21L78.93-13.21Q80.22-12.52 81.52-11.47 82.81-10.42 83.91-9.18 85.01-7.93 85.83-6.58 86.64-5.22 86.98-3.91L86.98-3.91 91.92-3.91 91.92 0 74.68 0 74.68-3.91 80.49-3.91Q80.08-5.22 79.2-6.62 78.32-8.01 77.07-9.23 75.83-10.45 74.25-11.35 72.68-12.26 70.9-12.57L70.9-12.57 63.03-12.57 63.03-3.91 68.99-3.91 68.99 0 51.17 0ZM82.66-12.77L82.66-12.77Q84.3-13.26 85.59-14.14 86.89-15.01 87.78-16.19 88.67-17.36 89.15-18.77 89.62-20.19 89.62-21.73L89.62-21.73Q89.62-22.8 89.4-23.8 89.18-24.8 88.64-25.72 88.11-26.64 87.2-27.49 86.3-28.34 84.96-29.15L84.96-29.15Q86.47-28.59 87.56-27.8 88.64-27 89.34-26.03 90.04-25.05 90.37-23.96 90.7-22.88 90.7-21.73L90.7-21.73Q90.7-20.31 90.32-18.97 89.94-17.63 89.17-16.42 88.4-15.21 87.2-14.21 86.01-13.21 84.4-12.5L84.4-12.5Q85.13-11.91 85.85-11.05 86.57-10.18 87.2-9.19 87.84-8.2 88.35-7.21 88.86-6.23 89.16-5.4L89.16-5.4 88.01-5.4Q87.64-6.35 87.09-7.41 86.55-8.47 85.85-9.47 85.15-10.47 84.35-11.34 83.54-12.21 82.66-12.77ZM63.03-16.48L71.85-16.48Q74.78-16.48 76.71-16.81 78.64-17.14 79.79-17.79 80.95-18.43 81.43-19.38 81.91-20.34 81.91-21.56L81.91-21.56Q81.91-23.07 80.83-24.28 79.76-25.49 77.41-26.07L77.41-26.07Q76.32-26.34 74.92-26.42 73.53-26.49 71.85-26.49L71.85-26.49 63.03-26.49 63.03-16.48ZM64.79-17.94L64.79-24.78 71.85-24.78Q73.85-24.78 75.19-24.69 76.54-24.61 77.46-24.39 78.39-24.17 79-23.82 79.61-23.46 80.12-22.92L80.12-22.92Q79.64-23.14 78.96-23.32 78.29-23.49 77.32-23.61 76.34-23.73 75.01-23.79 73.68-23.85 71.85-23.85L71.85-23.85 65.77-23.85 65.77-17.94 64.79-17.94ZM52.12-23.85L52.12-24.78 56-24.78 56-23.85 52.12-23.85ZM64.79-5.37L64.79-10.86 67.75-10.86Q70.09-10.86 71.91-10.49 73.73-10.11 74.56-9.18L74.56-9.18Q73.87-9.38 73.2-9.52 72.53-9.67 71.69-9.75 70.85-9.84 69.74-9.89 68.63-9.94 67.06-9.94L67.06-9.94 65.77-9.94 65.77-5.37 64.79-5.37ZM75.73 1.71L93.67 1.71 93.67-2.54 94.65-2.54 94.65 2.64 75.73 2.64 75.73 1.71ZM52.73 1.71L70.8 1.71 70.8-2.54 71.77-2.54 71.77 2.64 52.73 2.64 52.73 1.71ZM99.16 0L99.16-3.91 106-3.91 106-26.49 99.41-26.49 99.41-30.4 118.33-30.4 118.33-26.49 111.54-26.49 111.54-3.91 118.09-3.91 118.09 0 99.16 0ZM113.3-5.37L113.3-24.78 120.06-24.78 120.06-29.17 121.04-29.17 121.04-23.85 114.28-23.85 114.28-5.37 113.3-5.37ZM100.87-23.85L100.87-24.78 104.98-24.78 104.98-23.85 100.87-23.85ZM100.63 1.71L119.84 1.71 119.84-2.54 120.82-2.54 120.82 2.64 100.63 2.64 100.63 1.71ZM126.21-15.19L126.21-15.19Q126.21-17.21 126.74-19.19 127.26-21.17 128.33-22.95 129.39-24.73 130.97-26.26 132.56-27.78 134.68-28.89 136.81-30 139.48-30.63 142.16-31.25 145.35-31.25L145.35-31.25Q147.06-31.25 148.75-30.98 150.43-30.71 151.98-30.24 153.53-29.76 154.91-29.08 156.29-28.39 157.37-27.56L157.37-27.56 157.37-30.4 162.91-30.4 162.91-21.61 157.37-21.61Q156.58-22.85 155.31-23.91 154.05-24.98 152.43-25.73 150.82-26.49 148.92-26.92 147.01-27.34 144.96-27.34L144.96-27.34Q141.74-27.34 139.36-26.32 136.98-25.29 135.42-23.6 133.85-21.9 133.09-19.71 132.32-17.53 132.32-15.19L132.32-15.19Q132.32-12.55 133.29-10.34 134.27-8.13 136.02-6.54 137.76-4.96 140.18-4.06 142.6-3.17 145.5-3.17L145.5-3.17Q148.14-3.17 150.29-3.69 152.43-4.2 154.12-5.16 155.8-6.13 157.04-7.52 158.27-8.91 159.1-10.64L159.1-10.64 162.86-8.11Q160.59-3.76 156.23-1.51 151.87 0.73 145.28 0.73L145.28 0.73Q141.13 0.73 137.64-0.49 134.15-1.71 131.61-3.86 129.07-6.01 127.64-8.91 126.21-11.82 126.21-15.19ZM158.83-18.97L158.83-19.9 164.67-19.9 164.67-29.15 165.64-29.15 165.64-18.97 158.83-18.97ZM134.07-15.21L134.07-15.21Q134.07-17.48 134.88-19.38 135.69-21.29 137.14-22.68 138.59-24.07 140.61-24.85 142.62-25.63 145.06-25.63L145.06-25.63Q148.26-25.63 150.69-24.65 153.12-23.66 154.58-21.83L154.58-21.83Q152.46-23.32 150.08-24.01 147.7-24.71 144.96-24.71L144.96-24.71Q142.64-24.71 140.8-23.95 138.96-23.19 137.68-21.91 136.39-20.63 135.72-18.93 135.05-17.24 135.05-15.36L135.05-15.36Q135.05-13.53 135.55-11.95 136.05-10.38 137.14-9.06 138.22-7.74 139.96-6.67 141.69-5.59 144.18-4.79L144.18-4.79Q141.89-5.1 140.02-5.98 138.15-6.86 136.83-8.2 135.51-9.55 134.79-11.32 134.07-13.09 134.07-15.21ZM132.17-1.17L132.17-1.17Q133.34-0.37 134.89 0.31 136.44 0.98 138.16 1.45 139.89 1.93 141.73 2.19 143.57 2.44 145.33 2.44L145.33 2.44Q148.45 2.44 151.27 1.9 154.09 1.37 156.45 0.33 158.81-0.71 160.61-2.23 162.42-3.76 163.52-5.71L163.52-5.71 164.37-5.2Q163.25-3.17 161.39-1.57 159.54 0.02 157.08 1.12 154.63 2.22 151.64 2.8 148.65 3.37 145.28 3.37L145.28 3.37Q143.35 3.37 141.45 3.09 139.54 2.81 137.82 2.23 136.1 1.66 134.65 0.82 133.2-0.02 132.17-1.17ZM171.08 0L171.08-3.91 177.68-3.91 177.68-26.49 171.08-26.49 171.08-30.4 189.76-30.4 189.76-26.49 183.22-26.49 183.22-13.4 203.46-26.49 196.69-26.49 196.69-30.4 214.52-30.4 214.52-26.49 209.05-26.49 194.3-16.89 208.68-3.91 215.25-3.91 215.25 0 196.94 0 196.94-3.91 201.21-3.91 189.98-14.09 183.22-9.67 183.22-3.91 189.76-3.91 189.76 0 171.08 0ZM197.11-16.65L209.61-24.78 216.27-24.78 216.27-29.15 217.25-29.15 217.25-23.85 209.93-23.85 198.77-16.58 211.05-5.37 209.61-5.37 197.11-16.65ZM184.98-15.7L184.98-24.78 190.76-24.78 190.76-29.15 191.74-29.15 191.74-23.85 185.95-23.85 185.95-16.33 184.98-15.7ZM172.55-23.85L172.55-24.78 176.65-24.78 176.65-23.85 172.55-23.85ZM184.98-5.37L184.98-8.74 190.4-12.3 191.1-11.65 185.95-8.25 185.95-5.37 184.98-5.37ZM197.99 1.71L216.96 1.71 216.96-2.54 217.98-2.54 217.98 2.64 197.99 2.64 197.99 1.71ZM172.55 1.71L191.52 1.71 191.52-2.54 192.49-2.54 192.49 2.64 172.55 2.64 172.55 1.71Z" opacity="1" transform="matrix(1,0,0,1,0,0)" fill="#000000" class="wordmark-text-0" data-fill-palette-color="primary" id="text-0"></path></svg></g></svg></g><g transform="matrix(1,0,0,1,0,83.21989918472485)"><svg viewBox="0 0 395.52 36.15134301379767" height="36.15134301379767" width="395.52"><g transform="matrix(1,0,0,1,0,0)"><svg width="395.52" viewBox="3.25 -36.54999923706055 405.1600036621094 37.040000915527344" height="36.15134301379767" data-palette-color="#aab7c0"><path d="M10.25-13.99L10.25 0 3.25 0 3.25-35.01 10.25-35.01 10.25-21 24.24-21 24.24-35.01 31.25-35.01 31.25 0 24.24 0 24.24-13.99 10.25-13.99ZM59.54-21.46L47.04-6.4Q47.43-6.27 47.82-6.24 48.22-6.2 48.61-6.2L48.61-6.2Q49.58-6.2 50.49-6.47 51.39-6.74 52.18-7.24 52.98-7.74 53.6-8.46 54.22-9.18 54.61-10.06L54.61-10.06 59.49-5.15Q58.57-3.83 57.36-2.78 56.15-1.73 54.75-1 53.34-0.27 51.79 0.11 50.24 0.49 48.61 0.49L48.61 0.49Q45.85 0.49 43.42-0.54 40.99-1.56 39.17-3.39 37.35-5.22 36.3-7.75 35.25-10.28 35.25-13.31L35.25-13.31Q35.25-16.41 36.3-18.97 37.35-21.53 39.17-23.34 40.99-25.15 43.42-26.15 45.85-27.15 48.61-27.15L48.61-27.15Q50.24-27.15 51.8-26.76 53.37-26.37 54.77-25.63 56.17-24.9 57.39-23.84 58.62-22.78 59.54-21.46L59.54-21.46ZM42.7-9.84L50.46-20.14Q50-20.31 49.55-20.36 49.09-20.41 48.61-20.41L48.61-20.41Q47.24-20.41 46.03-19.91 44.82-19.41 43.93-18.48 43.04-17.55 42.53-16.25 42.01-14.94 42.01-13.31L42.01-13.31Q42.01-12.94 42.05-12.48 42.09-12.01 42.17-11.54 42.26-11.06 42.38-10.62 42.5-10.18 42.7-9.84L42.7-9.84ZM69.55-14.4L69.55 0 62.89 0 62.89-26.15 64.5-26.15 66.69-23.05Q68.31-24.51 70.36-25.31 72.41-26.1 74.6-26.1L74.6-26.1 80.49-26.1 80.49-19.46 74.6-19.46Q73.55-19.46 72.63-19.07 71.7-18.68 71.02-17.99 70.33-17.31 69.94-16.38 69.55-15.45 69.55-14.4L69.55-14.4ZM90.25-14.94L90.25 0 83.59 0 83.59-26.15 85.2-26.15 87.39-23.61Q89.01-25.07 91.04-25.87 93.08-26.66 95.31-26.66L95.31-26.66Q97.7-26.66 99.82-25.74 101.95-24.83 103.53-23.23 105.12-21.63 106.03-19.49 106.95-17.36 106.95-14.94L106.95-14.94 106.95 0 100.29 0 100.29-14.94Q100.29-15.97 99.89-16.88 99.5-17.8 98.82-18.48 98.14-19.17 97.23-19.56 96.33-19.95 95.31-19.95L95.31-19.95Q94.26-19.95 93.33-19.56 92.4-19.17 91.72-18.48 91.03-17.8 90.64-16.88 90.25-15.97 90.25-14.94L90.25-14.94ZM137-26.1L137 0 135.39 0 132.8-3.59Q131.85-2.73 130.79-1.99 129.73-1.25 128.55-0.7 127.38-0.15 126.15 0.17 124.92 0.49 123.65 0.49L123.65 0.49Q120.89 0.49 118.46-0.44 116.03-1.37 114.21-3.14 112.39-4.91 111.34-7.47 110.29-10.03 110.29-13.31L110.29-13.31Q110.29-16.36 111.34-18.91 112.39-21.46 114.21-23.29 116.03-25.12 118.46-26.14 120.89-27.15 123.65-27.15L123.65-27.15Q124.92-27.15 126.16-26.83 127.41-26.51 128.58-25.95 129.75-25.39 130.81-24.63 131.87-23.88 132.8-23L132.8-23 135.39-26.1 137-26.1ZM130.29-13.31L130.29-13.31Q130.29-14.67 129.76-15.95 129.24-17.24 128.33-18.23 127.43-19.21 126.22-19.81 125.01-20.41 123.65-20.41L123.65-20.41Q122.28-20.41 121.07-19.95 119.86-19.48 118.97-18.58 118.08-17.68 117.57-16.35 117.06-15.01 117.06-13.31L117.06-13.31Q117.06-11.6 117.57-10.27 118.08-8.94 118.97-8.03 119.86-7.13 121.07-6.67 122.28-6.2 123.65-6.2L123.65-6.2Q125.01-6.2 126.22-6.8 127.43-7.4 128.33-8.39 129.24-9.38 129.76-10.66 130.29-11.94 130.29-13.31ZM148.74-14.94L148.74 0 142.08 0 142.08-26.15 143.69-26.15 145.89-23.61Q147.5-25.07 149.54-25.87 151.57-26.66 153.8-26.66L153.8-26.66Q156.19-26.66 158.31-25.74 160.44-24.83 162.02-23.23 163.61-21.63 164.53-19.49 165.44-17.36 165.44-14.94L165.44-14.94 165.44 0 158.78 0 158.78-14.94Q158.78-15.97 158.39-16.88 158-17.8 157.31-18.48 156.63-19.17 155.72-19.56 154.82-19.95 153.8-19.95L153.8-19.95Q152.75-19.95 151.82-19.56 150.89-19.17 150.21-18.48 149.52-17.8 149.13-16.88 148.74-15.97 148.74-14.94L148.74-14.94ZM195.44-36.55L195.44 0 193.83 0 191.24-3.59Q190.29-2.73 189.23-1.99 188.17-1.25 187-0.7 185.82-0.15 184.59 0.17 183.36 0.49 182.09 0.49L182.09 0.49Q179.33 0.49 176.9-0.55 174.47-1.59 172.65-3.43 170.83-5.27 169.78-7.8 168.74-10.33 168.74-13.31L168.74-13.31Q168.74-16.26 169.78-18.8 170.83-21.34 172.65-23.19 174.47-25.05 176.9-26.1 179.33-27.15 182.09-27.15L182.09-27.15Q182.97-27.15 183.91-27 184.85-26.86 185.74-26.53 186.63-26.2 187.41-25.66 188.19-25.12 188.73-24.34L188.73-24.34 188.73-36.55 195.44-36.55ZM188.73-13.31L188.73-13.31Q188.73-14.67 188.21-15.95 187.68-17.24 186.78-18.23 185.87-19.21 184.67-19.81 183.46-20.41 182.09-20.41L182.09-20.41Q180.72-20.41 179.51-19.92 178.31-19.43 177.41-18.52 176.52-17.6 176.01-16.28 175.5-14.97 175.5-13.31L175.5-13.31Q175.5-11.87 176.01-10.57 176.52-9.28 177.41-8.3 178.31-7.32 179.51-6.76 180.72-6.2 182.09-6.2L182.09-6.2Q183.46-6.2 184.67-6.8 185.87-7.4 186.78-8.39 187.68-9.38 188.21-10.66 188.73-11.94 188.73-13.31ZM223.42-21.46L210.92-6.4Q211.31-6.27 211.7-6.24 212.09-6.2 212.48-6.2L212.48-6.2Q213.46-6.2 214.36-6.47 215.27-6.74 216.06-7.24 216.85-7.74 217.48-8.46 218.1-9.18 218.49-10.06L218.49-10.06 223.37-5.15Q222.44-3.83 221.23-2.78 220.03-1.73 218.62-1 217.22-0.27 215.67 0.11 214.12 0.49 212.48 0.49L212.48 0.49Q209.72 0.49 207.29-0.54 204.87-1.56 203.05-3.39 201.23-5.22 200.18-7.75 199.13-10.28 199.13-13.31L199.13-13.31Q199.13-16.41 200.18-18.97 201.23-21.53 203.05-23.34 204.87-25.15 207.29-26.15 209.72-27.15 212.48-27.15L212.48-27.15Q214.12-27.15 215.68-26.76 217.24-26.37 218.65-25.63 220.05-24.9 221.27-23.84 222.49-22.78 223.42-21.46L223.42-21.46ZM206.57-9.84L214.34-20.14Q213.87-20.31 213.42-20.36 212.97-20.41 212.48-20.41L212.48-20.41Q211.12-20.41 209.91-19.91 208.7-19.41 207.81-18.48 206.92-17.55 206.4-16.25 205.89-14.94 205.89-13.31L205.89-13.31Q205.89-12.94 205.93-12.48 205.96-12.01 206.05-11.54 206.13-11.06 206.26-10.62 206.38-10.18 206.57-9.84L206.57-9.84ZM247.17-6.64L247.17 0 225.37 0 236.38-19.46 225.37-19.46 225.37-26.1 247.17-26.1 236.16-6.64 247.17-6.64ZM280.25-28L280.25 0 273.27 0 273.27-28 262.74-28 262.74-35.01 290.75-35.01 290.75-28 280.25-28ZM314.91-13.31L314.91-13.31Q314.91-10.38 313.86-7.85 312.81-5.32 311.01-3.48 309.2-1.64 306.77-0.57 304.34 0.49 301.56 0.49L301.56 0.49Q298.8 0.49 296.37-0.57 293.94-1.64 292.12-3.48 290.3-5.32 289.25-7.85 288.2-10.38 288.2-13.31L288.2-13.31Q288.2-16.28 289.25-18.82 290.3-21.36 292.12-23.21 293.94-25.05 296.37-26.1 298.8-27.15 301.56-27.15L301.56-27.15Q304.34-27.15 306.77-26.16 309.2-25.17 311.01-23.35 312.81-21.53 313.86-18.98 314.91-16.43 314.91-13.31ZM308.2-13.31L308.2-13.31Q308.2-14.92 307.68-16.22 307.15-17.53 306.25-18.47 305.34-19.41 304.14-19.91 302.93-20.41 301.56-20.41L301.56-20.41Q300.19-20.41 298.98-19.91 297.78-19.41 296.88-18.47 295.99-17.53 295.48-16.22 294.97-14.92 294.97-13.31L294.97-13.31Q294.97-11.79 295.48-10.5 295.99-9.2 296.88-8.25 297.78-7.3 298.98-6.75 300.19-6.2 301.56-6.2L301.56-6.2Q302.93-6.2 304.14-6.71 305.34-7.23 306.25-8.15 307.15-9.08 307.68-10.4 308.2-11.72 308.2-13.31ZM325.26-14.4L325.26 0 318.6 0 318.6-26.15 320.21-26.15 322.41-23.05Q324.02-24.51 326.07-25.31 328.12-26.1 330.32-26.1L330.32-26.1 336.2-26.1 336.2-19.46 330.32-19.46Q329.27-19.46 328.34-19.07 327.41-18.68 326.73-17.99 326.04-17.31 325.65-16.38 325.26-15.45 325.26-14.4L325.26-14.4ZM345.96-14.4L345.96 0 339.3 0 339.3-26.15 340.91-26.15 343.11-23.05Q344.72-24.51 346.77-25.31 348.82-26.1 351.02-26.1L351.02-26.1 356.9-26.1 356.9-19.46 351.02-19.46Q349.97-19.46 349.04-19.07 348.11-18.68 347.43-17.99 346.74-17.31 346.35-16.38 345.96-15.45 345.96-14.4L345.96-14.4ZM382.41-21.46L369.91-6.4Q370.3-6.27 370.69-6.24 371.08-6.2 371.47-6.2L371.47-6.2Q372.45-6.2 373.35-6.47 374.26-6.74 375.05-7.24 375.84-7.74 376.47-8.46 377.09-9.18 377.48-10.06L377.48-10.06 382.36-5.15Q381.43-3.83 380.23-2.78 379.02-1.73 377.61-1 376.21-0.27 374.66 0.11 373.11 0.49 371.47 0.49L371.47 0.49Q368.72 0.49 366.29-0.54 363.86-1.56 362.04-3.39 360.22-5.22 359.17-7.75 358.12-10.28 358.12-13.31L358.12-13.31Q358.12-16.41 359.17-18.97 360.22-21.53 362.04-23.34 363.86-25.15 366.29-26.15 368.72-27.15 371.47-27.15L371.47-27.15Q373.11-27.15 374.67-26.76 376.23-26.37 377.64-25.63 379.04-24.9 380.26-23.84 381.48-22.78 382.41-21.46L382.41-21.46ZM365.57-9.84L373.33-20.14Q372.87-20.31 372.41-20.36 371.96-20.41 371.47-20.41L371.47-20.41Q370.11-20.41 368.9-19.91 367.69-19.41 366.8-18.48 365.91-17.55 365.39-16.25 364.88-14.94 364.88-13.31L364.88-13.31Q364.88-12.94 364.92-12.48 364.96-12.01 365.04-11.54 365.13-11.06 365.25-10.62 365.37-10.18 365.57-9.84L365.57-9.84ZM400.11 0L400.11 0 384.87 0 384.87-6.64 400.11-6.64Q400.79-6.64 401.28-7.13 401.77-7.62 401.77-8.3L401.77-8.3Q401.77-9.01 401.28-9.23 400.79-9.45 400.11-9.45L400.11-9.45 393.18-9.45Q391.44-9.45 389.93-10.11 388.41-10.77 387.29-11.9 386.17-13.04 385.52-14.55 384.87-16.06 384.87-17.8L384.87-17.8Q384.87-19.53 385.52-21.04 386.17-22.56 387.29-23.68 388.41-24.8 389.93-25.45 391.44-26.1 393.18-26.1L393.18-26.1 406.68-26.1 406.68-19.46 393.18-19.46Q392.49-19.46 392-18.97 391.52-18.48 391.52-17.8L391.52-17.8Q391.52-17.09 392-16.59 392.49-16.09 393.18-16.09L393.18-16.09 400.11-16.09Q401.82-16.09 403.33-15.52 404.85-14.94 405.97-13.92 407.09-12.89 407.75-11.45 408.41-10.01 408.41-8.3L408.41-8.3Q408.41-6.57 407.75-5.07 407.09-3.56 405.97-2.43 404.85-1.29 403.33-0.65 401.82 0 400.11 0Z" opacity="1" transform="matrix(1,0,0,1,0,0)" fill="#000000" class="slogan-text-1" data-fill-palette-color="secondary" id="text-1"></path></svg></g></svg></g></svg></g></svg></g><g><svg viewBox="0 0 184.24013759999997 184.24919017373847" height="184.24919017373847" width="184.24013759999997"><g><svg xmlns="http://www.w3.org/2000/svg" xmlns:xlink="http://www.w3.org/1999/xlink" version="1.1" x="0" y="0" viewBox="0.3583327531814575 0.3587183356285095 89.28327178955078 89.28765869140625" enable-background="new 0 0 90 90" xml:space="preserve" height="184.24919017373847" width="184.24013759999997" class="icon-icon-0" data-fill-palette-color="accent" id="icon-0"><polygon points="57.928,58.169 57.875,76.027 45.397,63.548 45.397,45.639 " fill="#000000" data-fill-palette-color="accent"></polygon><polygon points="76.027,57.875 58.475,57.927 45.826,45.279 63.432,45.279 " fill="#000000" data-fill-palette-color="accent"></polygon><polygon points="76.027,32.125 63.432,44.721 45.707,44.721 58.355,32.073 " fill="#000000" data-fill-palette-color="accent"></polygon><polygon points="44.838,45.59 44.838,63.314 32.125,76.027 32.074,58.355 " fill="#000000" data-fill-palette-color="accent"></polygon><polygon points="57.928,31.712 45.397,44.243 45.397,26.452 57.875,13.974 " fill="#000000" data-fill-palette-color="accent"></polygon><polygon points="44.838,26.687 44.838,44.291 32.074,31.526 32.125,13.974 " fill="#000000" data-fill-palette-color="accent"></polygon><polygon points="44.479,44.721 26.569,44.721 13.974,32.125 31.832,32.073 " fill="#000000" data-fill-palette-color="accent"></polygon><polygon points="44.36,45.279 31.712,57.927 13.974,57.875 26.569,45.279 " fill="#000000" data-fill-palette-color="accent"></polygon><rect x="58.48" y="58.48" width="18.049" height="18.049" fill="#000000" data-fill-palette-color="accent"></rect><polygon points="76.527,13.474 76.527,31.516 58.914,31.516 58.912,31.518 58.484,31.516 58.484,13.474 " fill="#000000" data-fill-palette-color="accent"></polygon><polygon points="31.518,30.971 31.516,31.516 13.474,31.516 13.474,13.474 31.516,13.474 31.516,30.968 " fill="#000000" data-fill-palette-color="accent"></polygon><rect x="13.471" y="58.48" width="18.05" height="18.049" fill="#000000" data-fill-palette-color="accent"></rect><rect x="67.864" y="35.981" transform="matrix(0.7071 -0.7071 0.7071 0.7071 -9.3022 67.5465)" width="18.042" height="18.042" fill="#000000" data-fill-palette-color="accent"></rect><rect x="35.979" y="4.094" transform="matrix(0.7071 -0.7071 0.7071 0.7071 3.9068 35.6621)" width="18.042" height="18.042" fill="#000000" data-fill-palette-color="accent"></rect><rect x="4.095" y="35.98" transform="matrix(0.7071 -0.7071 0.7071 0.7071 -27.9787 22.4536)" width="18.041" height="18.041" fill="#000000" data-fill-palette-color="accent"></rect><rect x="35.98" y="67.865" transform="matrix(0.7071 -0.7071 0.7071 0.7071 -41.1877 54.3437)" width="18.04" height="18.041" fill="#000000" data-fill-palette-color="accent"></rect></svg></g></svg></g></svg></g><defs></defs></svg><rect width="395.52" height="122.1043252618281" fill="none" stroke="none" visibility="hidden"></rect></g></svg></g></svg>